# xmcd CD database file
#
# Track frame offsets:
#	150
#	28166
#	54428
#	71208
#	86774
#	101283
#	118025
#	141994
#	157295
#	172031
#	186421
#	197750
#	211677
#	225797
#	239200
#	253425
#	266982
#	286432
#	301410
#	318786
#
# Disc length: 4434 seconds
#
# Revision: 0
# Processed by: cddbd v1.5.2PL0 Copyright (c) Steve Scherf et al.
# Submitted via: CDex 1.70beta2
#
DISCID=37115014
DTITLE=Charlie Barnet - Lonely Street and More
DYEAR=2007
DGENRE=Jazz
TTITLE0=Bluehound Bus Greys
TTITLE1=Things Ain't What They Used To Be
TTITLE2=Argo
TTITLE3=Who's Your Hoosier
TTITLE4=Blue Rose
TTITLE5=Lemon Twist
TTITLE6=Lumby
TTITLE7=Hear Me Talkin' To You
TTITLE8=Rose Room
TTITLE9=I Love You
TTITLE10=Sleepy Time Gal
TTITLE11=Keep The Home Fires Burning
TTITLE12=The Moon Was Yellow
TTITLE13=Myna
TTITLE14=You'd Be So Nice To Come To
TTITLE15=Phylysse
TTITLE16=I Gotta Right To Sing The Blues
TTITLE17=Serenade In Blue
TTITLE18=Isn't This A Lovely Day
TTITLE19=Lonely Street
EXTD=YEAR: 2007
EXTT0=
EXTT1=
EXTT2=
EXTT3=
EXTT4=
EXTT5=
EXTT6=
EXTT7=
EXTT8=
EXTT9=
EXTT10=
EXTT11=
EXTT12=
EXTT13=
EXTT14=
EXTT15=
EXTT16=
EXTT17=
EXTT18=
EXTT19=
PLAYORDER=
